# xmcd
# Copyright (C) 1995-1998 Ti Kan
#
# Track frame offsets:
#       150
#       16842
#       29246
#       42169
#       56350
#       73594
#       91744
#       105281
#       121612
#       136890
#       152419
#       168141
#
# Disc length: 2424 seconds
#
# Revision: 0
# Processed by: cddbd v1.5.2PL0 Copyright (c) Steve Scherf et al.
# Submitted via: CD-Transfer v1.0
#
DISCID=8409760c
DTITLE=Alpenland/Judith Und Mel - 
DYEAR=1900
DGENRE=
TTITLE0=Ein Festival Der Gefühle
TTITLE1=Zufall Oder Schicksal
TTITLE2=Bleib Wie Du Bist
TTITLE3=Dank An Die Eltern
TTITLE4=Zwei Herzen Schlagen Wie Eins
TTITLE5=Feuer, Wasser, Erde Und Licht
TTITLE6=Familie Ist Heimat
TTITLE7=Lebe Dein Leben
TTITLE8=Südliche Nacht
TTITLE9=Nimm Mich In Deine Arme
TTITLE10=Nordische Heimat
TTITLE11=Verlorene Träume, Verlorenes Glück
EXTD=
EXTT0=
EXTT1=
EXTT2=
EXTT3=
EXTT4=
EXTT5=
EXTT6=
EXTT7=
EXTT8=
EXTT9=
EXTT10=
EXTT11=
PLAYORDER=
